<?xml version="1.0" encoding="UTF-8"?>
<svg id="_레이어_1" data-name="레이어_1" xmlns="http://www.w3.org/2000/svg" version="1.1" viewBox="0 0 359.1 378.9">
  <!-- Generator: Adobe Illustrator 30.3.0, SVG Export Plug-In . SVG Version: 2.1.3 Build 182)  -->
  <defs>
    <style>
      .st0 {
        fill: #daf100;
      }
    </style>
  </defs>
  <rect width="359.1" height="378.9"/>
  <g>
    <path class="st0" d="M178.2,313.2c-.1,0-.3,0-.5-.1,0,0,0,0,0,0,0,0,0,0,0,0,.1,0,.3.1.5.1,0,0,0,0,0,0,0,0,0,0,0,0Z"/>
    <path class="st0" d="M325.7,176.5c.2-1.4.2-3.1.1-4.9-2.3-27.2-16.6-54.2-34.8-75.1-18.8-22.3-45.7-36.4-73.3-45.3h0c-4.5-2.9-10.1-3.8-15.4-3.5-8.9-5.5-11.9-8.8-20-12.4-8.9-2-16,7.5-25.4,12.4-5.3-.3-10.9.6-15.4,3.5h0c-13.2,7.8-70.3,22.6-55.9,46.8-14.4-11.1-22.9,6-28.9,13.7-14.6,21.5-24,47.5-23.4,73.6,0,0,0,0,0,0,5.2-9.4,29.3-10.7,37.1-12.1,2.7.1,6-1.6,6.3-2.8-11.6-.6-34.7-1-26.7-19.4,9.7-21,27.5-40.6,51.8-27.4,16.5,8,37.1,28.5,45.3,35.8,9.2,9.7,11.4,10.7,11.3,17.9-.3,1.4-1.5,2.5-2.8,2.9-8-.7-48.9.2-83.9.3-11.3,0-19.5,2.5-25.2,6.7h0c-.4.3-.8.6-1.2.9h0c-19.4,18-7.7,45.5,4.1,66.7,2.7,4.9,14.9,22.7,18.7,26.9,18.9,21.3,42.6,35.6,69.7,43.2,3.5,3.7,8.3,5.6,13.2,6.2,1.9.2,3.8.3,5.6.1,25.4,16.9,20.1,16.9,45.5,0,1.9.1,3.8,0,5.6-.1,5-.6,9.8-2.6,13.3-6.3,47.2-12.8,87-49.7,100.4-97.7,0,0,0,0,0,0-10.3,18.4-22.3,33.7-42,39.2-37.3,10.5-81.1-14.9-81.1-59.8s13.3-10.9,19.9-11.5c18.7-1,83.2-6.8,98.2,10.3h0c3,5.4,2.8,13.1.1,21.5,8.7-10.6,13.8-37.9-6.3-39.3.7-.1,1.3-.2,2-.4,6.4-1.3,12.5-3.6,13.2-10.6ZM108,92c-1.7-14.5,32.7-26.3,43.8-17.7,14.2,13.1,15.5,35.6,17.8,53.4h0c.2,7.5,5.9,29.2.4,29.2-11.7-4.4-54.2-41.7-62-65ZM59.3,255.8c-33-41.4,7.7-66.1,47.2-64.5,24.6.2,52.6-2.5,54.1,15.3,3.8,45.9-63.1,90.7-101.3,49.2ZM169.2,247.3c-1.9,16.1,0,59.4-21.3,62.9-20.3.8-41.1-10-54.7-21.4,0,0,0,0,0,0-1-1.5,0-3.2,1.9-3.9,28.3-1.7,54.9-17.3,68.5-44.5,3.9-7,6.3-16.5,8-23.8.4,2.4-1.5,22.9-2.4,30.7ZM172,195.4c-1.7-.9-5.6-4.6-6.7-6,1.5-1.8,4.6-4.9,5.4-5.4h0c.4-.2.9-.4,1.3-.6,2.9,2.8,2.9,9.2,0,11.9ZM183.5,324.8c-.1.3-.3.6-.4.9-1.8,3.3-6.3,2.6-7.5-.9-.2-30.7,3.2-66.2,4-94.9.8,28.7,3.8,63.9,4.1,94.5,0,.1,0,.3-.1.4ZM183.8,57.2c-.5,13.1-1.2,33-1.9,45.1-.9,15.6-1.8,31.2-2.4,46.9-.6-15.7-1.5-31.3-2.4-46.9-.7-12.1-1.4-31.9-1.9-45.1-.2-2.5,1.3-6.5,4.3-6.2,3-.2,4.4,3.7,4.3,6.2ZM249.9,282.8c3.6,1.6,18.7-.4,16,6-8.9,7.2-20.3,14.6-33.7,18.6-8.3,1.8-21.3,6.1-28.9-.8-11.5-12.4-11.2-33.2-12.7-49.1-.3-11.4-3.9-33.4-3.2-41.5,4.9,32.3,31.7,61.1,62.5,66.9ZM187.7,183.8c2,1,4.3,3.7,6,5.6-.4.5-4.9,5.3-6,5.7-2.5-2.8-2.5-8.5,0-11.3ZM189.6,156.9c-6.4,1-.4-20.1-.1-29.2h0c1.6-15,3.5-32.8,11.7-46.4,1.6-2.6,3.7-5.1,6-7,11.5-8.7,45.2,3.1,43.8,17.7-7.2,23.2-49.3,60.4-61.5,64.9ZM287.3,180.4c-34.8-.1-75.8-1.1-83.7-.3-1.4-.3-2.7-1.4-3-2.9,0-7.5,1.7-8.2,11.3-17.9,8-6.9,29.3-28.1,45.3-35.8,33.9-18.6,51.4,23.3,52.3,48.1-.9,9.2-19.6,8.7-22.2,8.8Z"/>
    <path class="st0" d="M180.9,313.2s0,0,0,0c0,0,0,0,0,0,.2,0,.3,0,.5-.1,0,0,0,0,0,0,0,0,0,0,0,0-.2,0-.3.1-.5.1Z"/>
  </g>
</svg>