<?xml version="1.0" encoding="UTF-8"?>
<svg id="_레이어_1" data-name="레이어_1" xmlns="http://www.w3.org/2000/svg" version="1.1" viewBox="0 0 312.6 19.6">
  <!-- Generator: Adobe Illustrator 30.3.0, SVG Export Plug-In . SVG Version: 2.1.3 Build 182)  -->
  <defs>
    <style>
      .st0 {
        fill: #040000;
      }
    </style>
  </defs>
  <path class="st0" d="M.2,2.8l-.2-.6C.8,1.2,2,.3,3.2.3c1.8,0,3.3,1.8,3.3,5.1s-1.4,6.5-3,8.1c1.9-.2,4.2,1.3,5.5,3.1.7-1.1,1.6-2.6,2.3-4l-3.3-8.6v-.5l2-1.6c1-.8,2.1-1.6,3.1-1.6s2.1,1,2.1,3-.9,4.9-2.2,7.7l2.2,5.5c1.9-2.9,4.5-8.6,4.5-12.3s-.7-2.4-1.7-2.2l-1.2.3v-.5c0,0,1.2-.8,1.2-.8.5-.3,1.2-.7,2-.7,1.1,0,1.9,1,1.9,3,0,4.6-3.6,10.4-7.5,16.2h-.2l-2.3-5.8c-1,1.8-2.2,3.9-3.5,5.8h-.2c-1.2-3-3.2-5.5-5.5-5.1v-.5c1-1.3,2-3.5,2-7S3.4,2,1.9,2s-1.2.3-1.7.8ZM9.7,3.1l2.7,6.9c.6-1.8,1-3.9,1-5.5,0-2.5-1.3-3-3.2-1.6l-.4.3Z"/>
  <path class="st0" d="M24.6,3.8c0-1.5-.3-1.8-.9-2.1l-1.4-.5v-.5h6.5v.5l-1.4.5c-.6.3-.9.6-.9,2.1v4.8h8.7V3.8c0-1.5-.3-1.8-.9-2.1l-1.4-.5v-.5h6.5v.5l-1.4.5c-.6.3-.9.6-.9,2.1v12c0,1.5.3,1.8.9,2.1l1.4.5v.5h-6.5v-.5l1.4-.5c.6-.2.9-.6.9-2.1v-5.8h-8.7v5.8c0,1.5.3,1.8.9,2.1l1.4.5v.5h-6.5v-.5l1.4-.5c.6-.2.9-.6.9-2.1V3.8Z"/>
  <path class="st0" d="M40.5,9.8c0-6.7,3.4-9.7,7.7-9.7s7.1,3.4,7.1,9.6-3.4,9.7-7.7,9.7-7.1-3.4-7.1-9.6ZM53.2,11c0-5.4-2.5-9.5-5.9-9.5s-4.7,2.4-4.7,7.2,2.5,9.5,6,9.5,4.6-2.4,4.6-7.2Z"/>
  <path class="st0" d="M56.2,18.4l1.4-.5c.6-.2.9-.6.9-2.1V3.8c0-1.5-.3-1.8-.9-2.1l-1.4-.5v-.5h6.5v.5l-1.4.5c-.6.3-.9.6-.9,2.1v13.7h5.7c.8,0,1.3-.6,1.7-1.8l1-2.7h.3c0,0-.7,5.9-.7,5.9h-12.4v-.5Z"/>
  <path class="st0" d="M69.6,18.4l1.4-.5c.6-.2.9-.6.9-2.1V3.8c0-1.5-.3-1.8-.9-2.1l-1.4-.5v-.5h13.5l.7,5.8h-.2c0,0-1.1-2.6-1.1-2.6-.5-1.2-.9-1.8-1.7-1.8h-6.9v6.6h3.7c.7,0,.9-.3,1.2-1.5l.5-2.4h.2v9h-.2l-.5-2.4c-.2-1.1-.5-1.5-1.2-1.5h-3.7v7.5h7.1c.8,0,1.3-.6,1.7-1.8l1.1-2.7h.2c0,0-.7,5.9-.7,5.9h-13.8v-.5Z"/>
  <path class="st0" d="M97.8,0c4.7,1.5,9,4.8,9,10.5s-3,8.2-6.8,8.9c-1.7-1.8-6.3-2.9-9.1-.4v-.5c1.8-2.4,3.9-5.1,3.9-10.6s-1.1-5.9-2.7-5.9-1.1.3-1.7.8l-.2-.6c.9-1.1,1.9-1.9,2.9-1.9,1.8,0,3,1.8,3.4,5.3l.9-5.6h.2ZM92.6,17c3.2-2.2,6.6-2.1,9.6.7,1.2-.8,2.5-2.9,2.5-6,0-4.9-3.5-7.7-7-8.8l-.8,5c-.6,3.4-2.1,6.7-4.3,9Z"/>
  <path class="st0" d="M110.1,3.8c0-1.5-.3-1.8-.9-2.1l-1.4-.5v-.5h6.5v.5l-1.4.5c-.6.3-.9.6-.9,2.1v12c0,1.5.3,1.8.9,2.1l1.4.5v.5h-6.5v-.5l1.4-.5c.6-.2.9-.6.9-2.1V3.8Z"/>
  <path class="st0" d="M114.9,18.4l1.4-.5c.6-.2.9-.6.9-2.1V3.8c0-1.5-.3-1.8-.9-2.1l-1.4-.5v-.5h13.1l.7,6h-.2l-1.1-2.8c-.5-1.3-.9-1.8-1.8-1.8h-6.4v7.3h3.7c.7,0,.9-.3,1.2-1.5l.5-2.4h.2v9h-.2l-.5-2.4c-.2-1.1-.5-1.5-1.2-1.5h-3.7v5.1c0,1.5.3,1.8.9,2.1l1.4.5v.5h-6.5v-.5Z"/>
  <path class="st0" d="M129.1,18.4l1.4-.5c.6-.2.9-.6.9-2.1V3.8c0-1.5-.3-1.8-.9-2.1l-1.4-.5v-.5h13.1l.7,6h-.2l-1.1-2.8c-.5-1.3-.9-1.8-1.8-1.8h-6.4v7.3h3.7c.7,0,.9-.3,1.2-1.5l.5-2.4h.2v9h-.2l-.5-2.4c-.2-1.1-.5-1.5-1.2-1.5h-3.7v5.1c0,1.5.3,1.8.9,2.1l1.4.5v.5h-6.5v-.5Z"/>
  <path class="st0" d="M143.3,18.4l1.4-.5c.6-.2.9-.6.9-2.1V3.8c0-1.5-.3-1.8-.9-2.1l-1.4-.5v-.5h13.5l.7,5.8h-.2c0,0-1.1-2.6-1.1-2.6-.5-1.2-.9-1.8-1.7-1.8h-6.9v6.6h3.7c.7,0,.9-.3,1.2-1.5l.5-2.4h.2v9h-.2l-.5-2.4c-.2-1.1-.5-1.5-1.2-1.5h-3.7v7.5h7.1c.8,0,1.3-.6,1.7-1.8l1.1-2.7h.2c0,0-.7,5.9-.7,5.9h-13.8v-.5Z"/>
  <path class="st0" d="M164.5,10.7h-1.3v5.1c0,1.5.3,1.8.9,2.1l1.4.5v.5h-6.5v-.5l1.4-.5c.6-.2.9-.6.9-2.1V3.8c0-1.5-.3-1.8-.9-2.1l-1.4-.5v-.5h8.9c3,0,4.7,1.3,4.7,5s-1.7,5-4.7,5h-.5l6.4,7.8v.5h-2.7l-6.6-8.2ZM170.4,5.7c0-2.6-1-3.6-2.6-3.6h-4.6v7.2h4.6c1.6,0,2.6-1,2.6-3.6Z"/>
  <path class="st0" d="M174.3,18.4l1.4-.5c.6-.2.9-.6.9-2.1V3.8c0-1.5-.3-1.8-.9-2.1l-1.4-.5v-.5h13.5l.7,5.8h-.2c0,0-1.1-2.6-1.1-2.6-.5-1.2-.9-1.8-1.7-1.8h-6.9v6.6h3.7c.7,0,.9-.3,1.2-1.5l.5-2.4h.2v9h-.2l-.5-2.4c-.2-1.1-.5-1.5-1.2-1.5h-3.7v7.5h7.1c.8,0,1.3-.6,1.7-1.8l1.1-2.7h.2c0,0-.7,5.9-.7,5.9h-13.8v-.5Z"/>
  <path class="st0" d="M190,18.4l1.4-.5c.6-.2.9-.6.9-2.1V4c0-1.4-.3-1.9-.9-2.2l-1.4-.7v-.5h4.2l8.8,13.4V3.8c0-1.5-.3-1.8-.9-2.1l-1.4-.5v-.5h5.4v.5l-1.4.5c-.6.3-.9.6-.9,2.1v15.6h-.2l-10.4-15.7v12.1c0,1.5.3,1.9.9,2.1l1.5.6v.5h-5.5v-.5Z"/>
  <path class="st0" d="M212.2,2.1h-3.1c-.8,0-1.3.6-1.7,1.8l-1,2.7h-.3c0,0,.7-5.9.7-5.9h12.9l.7,5.8h-.2c0,0-1.1-2.6-1.1-2.6-.5-1.2-.9-1.8-1.7-1.8h-3.1v13.7c0,1.5.3,1.8.9,2.1l1.3.5v.5h-6.4v-.5l1.3-.5c.6-.2.9-.6.9-2.1V2.1Z"/>
  <path class="st0" d="M236.5,19.5c-1.8,0-2.3-2.7-1.4-5.9l.6-2.3h-5.7l-4.7,6.3c.8-.5,1.9-.8,2.8-.8s2,.3,3,.3,2-.6,2.7-1.7l.2.4c-1.2,2.7-2.5,3.8-4.2,3.8s-2.9-.6-4.7-.6h-1.8v-.5c.1,0,10.1-13.3,10.1-13.3.6-.8,1.2-1.5,1.8-2.1-1.1,0-2.9-.2-3.8-.2-2,0-2.7.8-3.7,3.2l-.3-.3c1.4-4.2,3.1-5.2,5.3-5.2s2.8.2,5.9.2,1.2,0,1.8-.5l.2.3-3.5,12.6c-.8,2.8-.7,4.2.4,4.2s1.8-.8,2.5-1.7l.2.5c-1.3,1.9-2.5,3.3-3.7,3.3ZM231.5,9.4h4.8l2-7.3c-1.3.2-3.1,2.3-4,3.6l-2.8,3.7Z"/>
  <path class="st0" d="M240.5,18.4l1.4-.5c.6-.2.9-.6.9-2.1V4c0-1.4-.3-1.9-.9-2.2l-1.4-.7v-.5h4.2l8.8,13.4V3.8c0-1.5-.3-1.8-.9-2.1l-1.4-.5v-.5h5.4v.5l-1.4.5c-.6.3-.9.6-.9,2.1v15.6h-.2l-10.4-15.7v12.1c0,1.5.3,1.9.9,2.1l1.5.6v.5h-5.5v-.5Z"/>
  <path class="st0" d="M259.1,3.8c0-1.5-.3-1.8-.9-2.1l-1.4-.5v-.5h6.5v.5l-1.4.5c-.6.3-.9.6-.9,2.1v12c0,1.5.3,1.8.9,2.1l1.4.5v.5h-6.5v-.5l1.4-.5c.6-.2.9-.6.9-2.1V3.8Z"/>
  <path class="st0" d="M264,18.4l1.4-.5c.6-.2.9-.6.9-2.1V3.8c0-1.5-.3-1.8-.9-2.1l-1.4-.5v-.5h4.4l4.7,14.4,4.7-14.4h4.4v.5l-1.4.5c-.6.3-.9.6-.9,2.1v12c0,1.5.3,1.8.9,2.1l1.4.5v.5h-6.6v-.5l1.4-.5c.6-.2.9-.6.9-2.1V3.4l-5.4,16.1h-.2l-5.3-16.1v12.5c0,1.5.3,1.8.9,2.1l1.4.5v.5h-5.4v-.5Z"/>
  <path class="st0" d="M282.6,18.4l1-.4c.5-.2.8-.7,1.3-1.9l5.8-16.1h.2l5.9,16.1c.4,1,.7,1.6,1.4,1.9l1.1.4v.5h-6.9v-.5l1.4-.5c.8-.3,1-1.2.7-2.1l-1.2-3.2h-6.3l-1.2,3.3c-.3.8-.1,1.7.6,2l1.4.5v.5h-5.2v-.5ZM292.8,11.3l-2.7-7.4-2.7,7.4h5.4Z"/>
  <path class="st0" d="M299.6,18.4l1.4-.5c.6-.2.9-.6.9-2.1V3.8c0-1.5-.3-1.8-.9-2.1l-1.4-.5v-.5h6.5v.5l-1.4.5c-.6.3-.9.6-.9,2.1v13.7h5.7c.8,0,1.3-.6,1.7-1.8l1-2.7h.3c0,0-.7,5.9-.7,5.9h-12.4v-.5Z"/>
</svg>