<?xml version="1.0" encoding="UTF-8"?>
<svg id="_레이어_1" data-name="레이어_1" xmlns="http://www.w3.org/2000/svg" version="1.1" viewBox="0 0 125.3 91.2">
  <!-- Generator: Adobe Illustrator 30.3.0, SVG Export Plug-In . SVG Version: 2.1.3 Build 182)  -->
  <defs>
        <filter id="redGlow" x="-50%" y="-50%" width="200%" height="200%">
      <feDropShadow dx="0" dy="0" stdDeviation="8" flood-color="#720909" flood-opacity="1"/>
    </filter>

    <style>
      .st0 { fill: #040000; }
      .glow { filter: url(#redGlow); }
    </style>
  </defs>
   <g class="glow">
  <path class="st0" d="M80.4,36.5c.3,0,.6.2.9.2.6,0,1.1,0,1.7,0l2.7-.2c1.1,0,2.4.4,2.8,1.4.3.9.4,1.8.1,2.6,0,.2-.2.5-.3.7-1.3,1.3-3.6.2-5.2.7-.3,0-.6.5-.4.8.5.7.8,1.4.7,2.2l-.3,4.6c-.1.5-.5.9-.3,1.4l.3-.3-.4,1.4c-.2.5-2.2,2.3-2.8,2.7l-2.2,1.3c-.8.5-1.9.4-2.8,0-.2-.3,0-.6.1-.9.2-.4.4-.8.7-1.2.3-.5.9-.9,1.2-1.4.6-1,1-2,1.5-3l1.6-3.5c.3-.7.1-1.8-.7-2.1-1-.3-1.9-.8-2.9-1.3-.5-.2-.9-.5-1.2-.9-.5-.5-.5-1.2-.4-1.8.2-.5.4-1,.7-1.5,1-1.6,1.6-1.4,2.8-3.2,0-.1.2-.4.1-.5,0-.1-.2-.3-.3-.4-.9-.4-1.9-.7-2.8-.5-1.9.3-2.7,1.2-4.5.8l-1.1-.3c-.6-.1-1.2-.4-1.9-.6-1.2-.5-2.3-2.4-2.9-3.4-.9-1.6-1.6-3.3-1.8-5.2l-.5-3.6-.4-2.3c-.2-1-1.2-.8-2-1.5-.3.9-.3.5-.2,1.4-.6,1.7-.5,1.8-.7,3.5l-.3,4.4c0,1-.4,1.9-.7,2.8-.2.7-.6,1.3-1.1,1.8-.6.9-1.6,1.3-2.7,1.2-3.1-.4-3.4-1.3-6-3.1-1.2-.8-2.2-1.7-3.3-2.6-2.2-1.9-2.2-3-4.4-4.9-1-.9-1.8-1.8-2.6-2.9l-3.6-4.7-.7-1c-.3-.4-1.1-1.1-1.5-.7-.3.3,0,.9.2,1.3.2.7.4,1.4.8,2,.4.6.8,1.3,1.2,1.9l2.2,3.7c.5.8.9,1.6,1.3,2.4.1.3.4.5.5.8l.6,1.3c.7,1.7,1.1,3.5,2,5.1.2.3.2.6.2,1-.2,1.2-.1,1.7.3,2.8-.4,0-.8.3-.8.7l.9.7c.2.2.5.4.8.6l1.5.6c.5.2.9.4,1.4.5.8.3.7,1.2.7,1.8,0,1,.2,2,.2,3,0,1.2,0,2.3,0,3.5,0,.8,0,2.7-.5,3.3-.3.4-.9.6-1.3.7-.4.1-.7,0-1-.2-.7-.5-1.2-1.2-1.6-1.9l-1.6-3.1c-.4-.7-.6-1.5-.9-2.2-.1-.4-.3-.7-.5-1.1-.4-1.2-.6-2.4-.8-3.7,0-.5.1-.9.3-1.3.4-.8.2-.9.4-1.9.1-.5,0-.9-.5-1.2l-4.1-1.9c-.3-.2-1.2-.4-1.2.1v1.1c-.2,0-.5-.6-.6-.5,0,0,0,.1-.1.1-.5.2-.8.8-.6,1.3l.3.9c.7,1.8.5,3.8.7,5.7v.9c0,.3.1.5.3.6,0,0,.2.2.1.2l-.3.3c-.6.7-1.7,3.5-2.4,4.9l-1,2.1c-.8-.6-1.4-1.8-1.7-2.6-.4-1-.7-2-1-3-.2-.9-.4-1.7-.6-2.5l-.9-3.1c-.2-.6-.4-1.2-.4-1.9l-.2-3.3c0-.6,0-1.2,0-1.7.1-.4.4-.8.7-1,.7-.6.8-1.7.2-2.4-.9-1.1-1.9-1.9-3.2-2.5-1.1-.6-2-1.2-2.9-2-1.3-1.2-2.7-2.3-3.9-3.7l-2.9-3.3c-.3-.3-.5-.6-.7-.9l-1.2-1.8-2.7-3.7L3.8,4.9.8.8c-.2-.2-.6-.3-.7-.1-.1.1,0,.4,0,.6.8,2.2.7,3,2.1,5.1l2.2,3.4,3.4,5.6,2,3.3,3.5,5.4c.5.7.7,1.5,1.1,2.3l.9,2c.4.8.5,1.6.5,2.6v2.6c-.1,0,0,0,0,0h0s0,.2,0,.2c0,0,.1.1.2,0h.1s0,0,0,0c0,0,0,0,0,0h0s0,0,0,0c.1,0,0,.3-.1.4-.6.6-1.2,1.3-2.1,1.3-.8,0-1.5,0-2.3.4-.3.1-.5.4-.8.6-.4.3,1.1,1,1.2,1.1l2.2.7c1.3.4,2.5.9,3.7,1.5,1.3.7,2.3,1.7,3.1,2.9.5.6.9,1.2,1,2,.2,1,.6,2,.9,3,.3.8,0,1.7,0,2.6,0,.2,0,.5,0,.7,0,.9-.4,1.8-.6,2.7-.5,1.6-.8,2-1.8,3.4,0,0,0,.2,0,.2s.2.1.2,0l.5-.3s.2,0,.2,0v.2c0,.1.2.2.4.3.2.1.3,0,.5,0h.2c.1-.1.1.4-1.2.9l-1.5.6c-.5.2-1-.2-1.2-.7-.6.3-.3.5-.5.4-1.1.1-.1,1.6-.3,2.3l-.9,4.9c-.2,1.2-.9,2.3-1.4,3.4h0c0,.3.4.2.4.3v.3c.1.2.9,0,1,.4,0,.1,0,.4-.2.4h-.7c0,0,0,.3,0,.3,0,0,.1.2.1.1h.1c0-.1,0-.1,0-.1h0c0,.2,0,.5-.2.6-.4.4-.8.8-1.1,1.2l-2.2,2.5c-.4.5-.8.9-1.3,1.3-.2,0-.2,0-.3,0l-.3.6h-.5c0,.4,0,.7-.2,1l-2.1,2.2c-.4.4-.7.8-1.1,1.1-.4.4-.7.7-1,1.1l-.6.7c-.4.5-.8.9-1.3,1.3-.3.2-.5.5-.7.8,0,0,0,.2-.1.3,0,0-.5.2-.7.5-1,1-1.2,2-1.5,3.4,0,.3,0,.6.1.9s.4.2.6,0l1.1-.9c.4-.4.8-.6,1.2-1l4.9-5.1,1.5-1.5c.7-.7.7-1.1,1.5-1.6.3-.2.5-.5.8-.7l1.9-1.8,2.8-2.5,2.6-2.2c1.1-.9,2.3-1.7,3.5-2.5.9-.6,1.7-1.1,2.6-1.6.6-.3,1.2-.6,1.8-.8.8-.3,1.6-.6,2.3-1,.5-.3,1-.6,1.3-1.1.2-.3.4-.7.3-1.1l-1.3-4.7c-.2-.8,0-1.7.2-2.5.4-1.1.9-2.2,1.4-3.3.7-1.6,1.9-2.8,3.4-3.6.4-.2.8-.2,1.2.1.6.5,1.2,1.1,1.7,1.7.8.9,1.5,1.9,2,3,.4.8.7,1.6.9,2.5.3,1,.2,2-.1,2.9-.2.5,0,1.8-.7,3.3-.3.6.8.6,1.5,1.1l2.4,1.6c.4.3.8.7,1.2,1,.4.3.9.6,1.3.9.7.7,1.4,1.3,2.2,2,1.6,1.4,1.4,3,3.4,3.9,1.2.6,1.3,1.1,2.9,1.4.4.1.8-.8.5-1.5-.4-1.1-1-2.2-1.5-3.3-.4-.7-.7-1.5-.9-2.3-.2-.9-.3-1.9,0-2.8.2-.7.9-1.1,1.5-1.3.7-.2,1.3.2,1.4.9,0,.5.2,1.1.3,1.6l.6,1.9c0,.1.2.2.3.2.7,0,.8-.9,1.1-1.5.3-.5.5-1.1.8-1.6.3-.6.9-.6,1.4-1.7.7-1.7,2.3-2.6,3.7-3.6,2-1.4,4.8-3.1,7.3-3.3,1,0,1.8.2,2.5.9.3.3.5.7.6,1.1.1.7.1,1.5-.2,2.2-.5,1.1-2.7,4.7-3.4,5.5l-1.7,2c-.3.3-1.4,1.8-1,2.2,0,0,.1,0,.2-.1v-.3c.1,0,.3,0,.3,0,.2,0,0,.5,0,.5-.1,0-.4,0-.4,0l-.3.8h0c0,0,0,.1,0,.1h0c0,0,0,.1,0,.1h-.1s0,0,0,0c0,0-.1,0-.1,0l-.3.5h0c0,0,0,.2,0,.2h0c0,0,0,.2,0,.2h0c0,0,0,.2,0,.2h0c0,0,0,.2,0,.2-.3.5-.6.9-.8,1.4v.2c.2.3.3.6.5.7.3.1.6,0,.9-.1l1-.8c.8-.6,2.3-1.8,2.9-2.6.4-.5,1-1.1,1.5-1.6l2.2-2.2c.7-.7,1.5-1.4,2.4-2,.7-.5,1.3-.9,2.1-1.3.7-.4,1.3-.9,1.8-1.5.9-1-.2-1.4.5-2.9.3-.6.6-1.2,1.1-1.8.5-.6,1.1-1,1.8-1.2.8-.3,1.6-.5,2.4-.6.6,0,1.2,0,1.8,0h2.9s.8,0,.8,0c1.3.2,3.3-.3,3.6,1.1.3,1.6.8,2.1,1.4,3.6.5,1.2,0,1.5.4,2.8.5,1.3,0,2.7-.5,3.9-.3.7,2.8,1.9,3.6,2.5l4.9,3.7c1.1.8,2.2,1.6,3,2.6l1.4,1.8,1.5,2,2.9,3.3,1.9,2.2c.6.7,1.3,1.2,2.1,1.6l2.9,1.3c.2,0,.5,0,.6-.1.3-.6-.8-1.7-1.1-2.1l-.9-1.3c-.7-1-1.4-2-2.1-3.1-.5-.8-1-1.5-1.5-2.3-.8-1-1.6-2-2.3-3.1-.5-.7-.9-1.3-1.4-1.9-1.5-1.9-1.9-3.1-3.1-4.7-.7-.9-1.3-1.8-1.9-2.7-1.4-2.2-.9-1.8-1.8-4.1-.6-1.4-.8-2.9-.7-4.4,0-.6,0-1.2,0-1.8,0-1.2,1.1-2.7.2-3.1-.7-.3-1.3-.7-1.9-1-.9-.5-1.6-1.1-2.2-2-.6-.8-1-1.7-1.3-2.7-.1-.5-.2-1-.3-1.5,0-.7-.2-1.4-.3-2.1-.2-1.8.2-3.7,1.1-5.2.4-.6.8-1.2,1.3-1.8.8-1,1.9-1.8,3-2.4.6-.3,1.1-.7,1.8-.9l3.5-1.1,1.6-.5c.2,0,.4-.2.5-.3.4-.8-1.3-2-1.2-4.5,0-1.3-.3-2.1-.1-2.9.2-.6.3-1.2.4-1.8.2-1.7.7-3.4,1.2-5,.3-.9.6-1.8,1.1-2.7l2-3.9c.9-1.8,1.5-2,1.8-2.6l1.1-1.9,3.2-5.1,2.1-3.6c0,0,.1-.4,0-.5-.1-.2-.5-.3-.7-.3h-.8c0,0-.2,0-.2,0,0,0,0,.1,0,.2l-.2.6c.1.4-.3.6-.2.7h.1c0,.1,0,.2,0,.2l-.7,1c0,0-.1.2-.2.2h-.2s-.2,0-.2,0c-.7,0-.3,0-.9.4,0,0-.2,0-.2.1,0,.3.2.3.1.4h-.3c0,.1.3.3.3.3l-.2.3s-.1.1-.1.2c0,0-.1,0-.2,0l-.2-.2v.6c-.2.7-.9.7-.9.8,0,.2.1.4,0,.6l-.3.3h0c.1,0,.3.2.3.3-.2.3-.6,0-.9,0l-1.4,1.8-.8,1c-.5.6-1.4,1.9-1.6,2.6l.4,1.1-.3.2.2.3-.9,1.2s-.4.2-.5.1c0,0,0-.1,0-.1v-.5s.2.1.2.1c.2-.1,1-.8.8-1.1-.2-.3-.6-.2-.8,0-.7.7-.8,1.5-1.3,2.3-.1.2-.2.5,0,.7,0,.1.1.2.3.2h0c0,0-.3.4-.3.4h0c0,0,0,.1,0,.1h0c0,0,0,.1,0,.1-.3.3-.6.6-.8.9-.3.4-.8,1-1.3,1.2,0,0-.3,0-.3-.2,0,0,0-.1.2-.3,0,0-.2,0-.3,0,0,0-.2.2-.2.2l-2.1,2.1c-.3.3-.6.6-.9,1l-.5.3c0,.1.2.2.2.2h.3c0-.1.1-.1,0-.1,0,0,0,.1,0,.1-.4.6-1.1,1.3-1.8,1.5,0,0-.1,0-.1,0h0c-1,.4-1.1.7-2.2,1-.3,0-1,.3-1.1.5,0,0,.3,0,.2.5h.3s.1,0,.1,0c0,.1,0,.4,0,.5-.1.1-.4.2-.6.2-.2,0-.4-.5-.4-.4-.3.3-.4.8,0,1.1.6.6,1.4,1,1.8,1.5.8.9,1.2,2.1.9,3.3-.3.5-.7.9-1.1,1.4-.4.6-1,1.1-1.8,1.4-.5.2-.9.5-1.4.6-1.5.4-3.2,0-4.3-1.2-.6-.7-.9-1.6-.8-2.6.3-1.8.9-3.6,2-5.1,1-1.4.9-2,1.3-2.7l2.2-3.6,5.3-9.1c.4-.7.7-1.4,1.2-2.1l.9-1.2c0,0,0-.2.1-.3-.2-.2-.4,0-.6,0-.6.5-1.2.9-1.7,1.5l-1.8,2c-.5.5-1,1-1.6,1.4-.2.1-.3.4-.5.6-.3.5-.6.8-.9,1.3-.6.8-1.4,1.8-1.9,2.6,0,0,0,.2,0,.2h.2c0,0,.2-.2.3-.3.5-.8,1-1.4,1.6-2.1,0,0,.3-.2.4,0l.2.8c-.4.4-.6.8-.9,1.2-.3-.4-.8.4-1,.6l-.6,1.2c-.5,1,0,1.5-.6,1.7-.2,0-.4.2-.5.3,0,.1,0,.4,0,.6-.2.3-.4.7-.6,1l-.6,1.2c0,.2-.3.3-.5.2-.4,0-.3-.5-.7-.7-.1,0-.4,0-.4,0,0,.6-.8.7-.7.8h0c0,.1.2.2.2.2,0,0,0,.1-.1.1l-.4.4v.3c.1,0-.4.7-.4.7.2.3.4.7.2,1-.1.2-1,1.3-1.3,1.1-.9-.9-1.4-.6-2.4-.2-.3.1-1.2.7-.8.8h.6c.2.3.3.6.1.9-.7,1.1-.5.6-1.2,1-1.6.9-1.1.4-2.2,1.8-.4.5-.8.7-1.2,1.2l-.9.9s-.1,0-.1,0c-1,.4-.9-.4-2.2.6-.6.4-.7.6-1.9,1-.1,0-.1,0-.1.1s0,.1.5.2ZM23.2,67l-1.4,1c-.2.1-.4.2-.5,0l2.1-1.9c.2-.2.3-.4.6-.5,0,0,.3,0,.4,0,.2.4-.8,1.1-1.1,1.3ZM24.4,64.4c-.2.2-.5.2-.7.1-.2,0-.3-.4-.2-.6.1-.8.5-1.4,1-2,.3-.3.6-.7,1-.7.3,0,.6.3.6.7-.2.9-1,2-1.7,2.6ZM26.1,65.4c-.1.1-.4.3-.5.2l-.3-.7c0-.1.3-.3.3-.2.2.2.2.2.5.2.1.1,0,.4,0,.5ZM31.9,49.2c-.2.2-.6.5-.9.8-.3,0-.4-.3-.4-.6l.2.2c0,0,.2-.1.2-.2,0-.3.3,0,.7-.3,0,0,.1,0,.2,0,0,0,0,.2,0,.2ZM57.4,60.4c-.5.3-1,.5-1.5.7l-.5-.4v-.2c-.1-.1-.4-.1-.6,0l-1.1.4c-.5.2-1.1,0-1.6-.2-1.1-.5-1.8-1.6-1.7-2.9l.2-3.5.2-3.5c0-.4.2-.8.3-1.2.3-1.2,0-1.8.3-2.8.2-.5.5-1.2,1.1-1.3.4,0,.9,0,1.3,0l1.2.3c.3,0,.5.3.7.6.3.7.6,1.5.6,2.3.1,1.3.3,2.4.5,3.7.1.8,0,1.6,0,2.5,0,1.6.4,2.8.2,4.3.3.3.7,0,1.2-.3.6-.2.6-.6.8-.8,0,0,.1,0,.1.1v.4c0,0,.5,0,.5,0,0,.5-1.6,1.6-2,1.9ZM58.3,35v-.5c0,0-.2-.2-.2-.2h-.3c0,.1-.5-1.1-.5-1.1,0-.2.2-.5.4-.6h.8c.1,0,.3.2.5.3l-.4.3c.1.3.3.5.6.6l.2-.5c.3.2.4.3.7.3-.3.7-.8,1.1-1.5,1.3ZM59.6,32.4c0,0-.2-.2-.2-.1l-.2.2c-.1-.3-.3-.6-.4-.9l.7-.3-.2-.3-.4.2.2-.9c.2,0,.4.2.5.4h.5c0,.4.1.7.2,1,0,.6.3.5-.3,1.5l-.5-.7ZM70.6,54.9c-.8.7-1.7,1.3-2.6,1.8,0,0-.2,0-.2,0h.2c-.2-.7,0-.9.4-1.3v.3c.3-.2.3-.5.1-.7l-.4.2-.2.3v-.2c-.2,0-.7.5-1.1.7l-1.8.8c-.4.2-.9.3-1.4.4-.4,0-.8-.1-.9-.5-.2-.3-.3-.7-.2-1v-2.6c.1-1,.2-2,.3-3,0-.4.3-.8.2-1.3-.1-2,0-1.3-.5-3.2-.2-.8-.6-1.4-1.1-2-.1-.1-.1-.6,0-.8.2-.4-.2-.7-.3-1-.3-.7-.5-1.5-.7-2.3-.2-.6-.2-1.2,0-1.7.1-.4.5-.6.9-.4l2.1,1.1c.3.1.6.2.8.4,1.4,1.3,1.2,1.1,2.3,2.6l1,1.3.9,1.6c.4.7,1.3,1.1,2,1.5,1.2.5,1.9,1.5,1.9,2.8,0,1.1-.5,2.5-1,3.4v.5s-.1.1-.1.1v-.2c0,0-.8.6-.8.6-.2.1-.4.2-.3.5l-.4.2.5.3-.3.3s0,.2,0,.3l-.7.2c-.1,0-.2,0-.4,0l-.2.6c.2,0,.5,0,.7,0,.9-.4,1.1-1.1,1.4-.9,0,0,0,.2,0,.2ZM71.3,54.3s-.2,0-.2,0c-.1-.2.3,0,.2-.7h.4s1-1.2,1-1.2c0,0,.1-.2.2-.2,0,0,.2,0,.3.1-.6.7-1.2,1.4-1.9,2ZM67.9,75.9c.1-.4.4-.6.7-.9h.1c-.2.5-.3.8-.8.9ZM77.9,64.3l-.3.4c-.4,1.1-1.1,2.1-2,2.8-.3.3-.6.6-.9.9-.6.7-1.1,1.3-1.7,1.9-.5.6-.9,1.2-1.3,1.9,0,.1-.2.3-.3.3-.2-.4.1-.7.4-.9l-.6-.4-.2-.7c.4-.3.7-.6.9-.9h-.2c0-.1,0-.1,0-.1h.1c-.1-.7.6-.6,1-1.5h.7c.2,0,.2-.3,0-.3,0,0,0-.2,0-.2,0,0,.2,0,.2,0l.3.2c.6-.3,1-.8.7-1.5v.5c-.1,0-.4-.3-.4-.3l-.4.2c.2-.8.7-1.5,1.2-2.2,0,.4-.2.8-.4,1.1,0,0-.2.2-.2.2,0,0,0,.2.1.3.2-.1.4-.2.5-.4l.8-1.6c0,0,.2-.2.3-.2,0,0,.2.1.3.2.2,0,.3.1.5.2.3,0,.6-.1.9-.3,0,0,0,.3,0,.4ZM82.3,54.7v-.4c0,0-.2-.1-.2-.2,0,0,0-.3,0-.3.3,0,.4,0,.6-.2,0,.2.2.5.3.6-.1.3-.4.4-.7.5ZM83.3,53.3c-.2,0-.4,0-.6,0l.3-.2-.3-.2c.2,0,.5,0,.7.1,0,0,0,.3-.1.4ZM89.7,41.4h-.4c0,0,0-.4,0-.4.7,0,1.2.9,1.4.3.2.1.5.2.7.2,0,0,0,.2,0,.3l-1,.5-.2-.4-.3.7h-.7c0-.4.2-.7.5-.8,0,0,0-.2,0-.2ZM94.3,54.7c-1.6,0-3,0-4.4-.6-.8-.4-1.3-1.2-1.2-2.1.1-1.1.3-2.3.6-3.4.1-.4.4-.7.6-1.1.3-.9,1-1.8,2-2.1.6-.2,1.3.2,1.7.7.4.5.6,1.2.7,1.9.2,1.8.6,2.2,1,3.9.5,1.7-.2,2,.2,2.6-.4,0-.8.1-1.2.1ZM98.2,55s-.2.1-.2,0l-1-.2c-.3.2-.6.2-.9,0v-.3c.1,0,.3,0,.4,0,1.2,0,.1-.4,1.7.1,0,0,.1.2,0,.2ZM105.6,35l-1.6,1.6-.7-.3.5-.3-.2-.2c.7-.2.2-.7.8-.7,0,0,.2,0,.2,0,0,0,0,0,0-.2l.3.2v-.9c0,0,.9.3.9.3,0,.2,0,.4-.2.6ZM107.5,25.6v-.4c0,0,.2-.1.3-.2,0,0,.2,0,.2.1,0,.2-.2.4-.5.5Z"/>
</g>
</svg>